<svg width="114" height="40" viewBox="0 0 114 40" fill="none" xmlns="http://www.w3.org/2000/svg">
<rect width="113.571" height="40" rx="4" fill="#E5ECF4"/>
<path fill-rule="evenodd" clip-rule="evenodd" d="M67.4867 30.7001C67.0391 30.843 66.5344 30.9144 65.9724 30.9144C65.3153 30.9144 64.7367 30.8215 64.2367 30.6358C63.7367 30.4501 63.3201 30.193 62.9867 29.8644C62.6534 29.5358 62.401 29.1501 62.2296 28.7073C62.0582 28.2644 61.9724 27.7811 61.9724 27.2573V26.8287H63.8582V27.1715C63.8582 27.7715 64.032 28.2501 64.3796 28.6073C64.7272 28.9644 65.2677 29.143 66.001 29.143C66.5724 29.143 66.9963 29.0192 67.2724 28.7715C67.5486 28.5239 67.6867 28.2287 67.6867 27.8858C67.6867 27.7239 67.6582 27.5692 67.601 27.4215C67.5439 27.2739 67.4439 27.1406 67.301 27.0215C67.1582 26.9025 66.9629 26.7954 66.7153 26.7001C66.4677 26.6049 66.1534 26.5239 65.7724 26.4573C65.2677 26.3715 64.8058 26.2596 64.3867 26.1215C63.9677 25.9835 63.6034 25.8001 63.2939 25.5715C62.9844 25.343 62.7439 25.0573 62.5724 24.7144C62.401 24.3715 62.3153 23.9525 62.3153 23.4573V23.3715C62.3153 22.962 62.3986 22.5835 62.5653 22.2358C62.732 21.8882 62.9653 21.5858 63.2653 21.3287C63.5653 21.0715 63.9272 20.8715 64.351 20.7287C64.7748 20.5858 65.2486 20.5144 65.7724 20.5144C66.3629 20.5144 66.8867 20.5977 67.3439 20.7644C67.801 20.9311 68.1844 21.1573 68.4939 21.443C68.8034 21.7287 69.0367 22.0573 69.1939 22.4287C69.351 22.8001 69.4296 23.1906 69.4296 23.6001V24.1144H67.5439V23.7715C67.5439 23.3715 67.3891 23.0239 67.0796 22.7287C66.7701 22.4335 66.3344 22.2858 65.7724 22.2858C65.2963 22.2858 64.9201 22.3835 64.6439 22.5787C64.3677 22.7739 64.2296 23.0382 64.2296 23.3715C64.2296 23.543 64.2629 23.6977 64.3296 23.8358C64.3963 23.9739 64.5129 24.0977 64.6796 24.2073C64.8463 24.3168 65.0653 24.4144 65.3367 24.5001C65.6082 24.5858 65.9534 24.6668 66.3724 24.743C67.4201 24.9335 68.2201 25.2525 68.7724 25.7001C69.3248 26.1477 69.601 26.8096 69.601 27.6858V27.8573C69.601 28.3239 69.5177 28.7454 69.351 29.1215C69.1844 29.4977 68.9439 29.8192 68.6296 30.0858C68.3153 30.3525 67.9344 30.5573 67.4867 30.7001ZM39.3286 30.7144L39.8143 28.5715H43.2143L43.7 30.7144H45.6714L43.2857 20.7144H39.7429L37.3571 30.7144H39.3286ZM42.8 26.7715H40.2143L41.3857 21.6573H41.6429L42.8 26.7715ZM47.7908 29.6858V33.5715H45.9908V23.6287H47.7908V24.6573H48.048C48.2384 24.2668 48.5146 23.9644 48.8765 23.7501C49.2384 23.5358 49.7003 23.4287 50.2622 23.4287C50.6813 23.4287 51.0789 23.5096 51.4551 23.6715C51.8313 23.8335 52.1599 24.0692 52.4408 24.3787C52.7218 24.6882 52.9456 25.0668 53.1122 25.5144C53.2789 25.962 53.3622 26.4715 53.3622 27.043V27.3001C53.3622 27.8811 53.2813 28.3954 53.1194 28.843C52.9575 29.2906 52.7384 29.6692 52.4622 29.9787C52.1861 30.2882 51.8599 30.5215 51.4837 30.6787C51.1075 30.8358 50.7003 30.9144 50.2622 30.9144C49.9384 30.9144 49.6575 30.8811 49.4194 30.8144C49.1813 30.7477 48.9741 30.6573 48.798 30.543C48.6218 30.4287 48.4741 30.2977 48.3551 30.1501C48.2361 30.0025 48.1337 29.8477 48.048 29.6858H47.7908ZM49.6765 29.2001C49.1146 29.2001 48.6599 29.0215 48.3122 28.6644C47.9646 28.3073 47.7908 27.8382 47.7908 27.2573V27.0858C47.7908 26.5049 47.9646 26.0358 48.3122 25.6787C48.6599 25.3215 49.1146 25.143 49.6765 25.143C50.2384 25.143 50.6932 25.3168 51.0408 25.6644C51.3884 26.012 51.5622 26.4858 51.5622 27.0858V27.2573C51.5622 27.8573 51.3884 28.3311 51.0408 28.6787C50.6932 29.0263 50.2384 29.2001 49.6765 29.2001ZM55.8959 29.6858V33.5715H54.0959V23.6287H55.8959V24.6573H56.1531C56.3435 24.2668 56.6197 23.9644 56.9816 23.7501C57.3435 23.5358 57.8054 23.4287 58.3673 23.4287C58.7864 23.4287 59.184 23.5096 59.5602 23.6715C59.9364 23.8335 60.265 24.0692 60.5459 24.3787C60.8269 24.6882 61.0507 25.0668 61.2173 25.5144C61.384 25.962 61.4673 26.4715 61.4673 27.043V27.3001C61.4673 27.8811 61.3864 28.3954 61.2245 28.843C61.0626 29.2906 60.8435 29.6692 60.5673 29.9787C60.2912 30.2882 59.965 30.5215 59.5888 30.6787C59.2126 30.8358 58.8054 30.9144 58.3673 30.9144C58.0435 30.9144 57.7626 30.8811 57.5245 30.8144C57.2864 30.7477 57.0792 30.6573 56.9031 30.543C56.7269 30.4287 56.5792 30.2977 56.4602 30.1501C56.3412 30.0025 56.2388 29.8477 56.1531 29.6858H55.8959ZM57.7816 29.2001C57.2197 29.2001 56.765 29.0215 56.4173 28.6644C56.0697 28.3073 55.8959 27.8382 55.8959 27.2573V27.0858C55.8959 26.5049 56.0697 26.0358 56.4173 25.6787C56.765 25.3215 57.2197 25.143 57.7816 25.143C58.3435 25.143 58.7983 25.3168 59.1459 25.6644C59.4935 26.012 59.6673 26.4858 59.6673 27.0858V27.2573C59.6673 27.8573 59.4935 28.3311 59.1459 28.6787C58.7983 29.0263 58.3435 29.2001 57.7816 29.2001ZM76.6775 30.7144V29.0001H74.7633C74.5061 29.0001 74.3775 28.8573 74.3775 28.5715V25.343H76.9347V23.6287H74.3775V20.7144H72.5775V23.6287H70.4775V25.343H72.5775V29.6001C72.5775 29.9239 72.6799 30.1906 72.8847 30.4001C73.0895 30.6096 73.3537 30.7144 73.6775 30.7144H76.6775ZM83.4327 30.6715C82.9898 30.8335 82.5255 30.9144 82.0398 30.9144C81.5541 30.9144 81.0898 30.8335 80.6469 30.6715C80.2041 30.5096 79.8112 30.2739 79.4684 29.9644C79.1255 29.6549 78.8541 29.2739 78.6541 28.8215C78.4541 28.3692 78.3541 27.8477 78.3541 27.2573V27.0858C78.3541 26.5049 78.4541 25.9882 78.6541 25.5358C78.8541 25.0835 79.1255 24.7001 79.4684 24.3858C79.8112 24.0715 80.2041 23.8335 80.6469 23.6715C81.0898 23.5096 81.5541 23.4287 82.0398 23.4287C82.5255 23.4287 82.9898 23.5096 83.4327 23.6715C83.8755 23.8335 84.2684 24.0715 84.6112 24.3858C84.9541 24.7001 85.2255 25.0835 85.4255 25.5358C85.6255 25.9882 85.7255 26.5049 85.7255 27.0858V27.2573C85.7255 27.8477 85.6255 28.3692 85.4255 28.8215C85.2255 29.2739 84.9541 29.6549 84.6112 29.9644C84.2684 30.2739 83.8755 30.5096 83.4327 30.6715ZM82.0398 29.2001C81.7826 29.2001 81.5398 29.1573 81.3112 29.0715C81.0826 28.9858 80.8827 28.862 80.7112 28.7001C80.5398 28.5382 80.4041 28.3406 80.3041 28.1073C80.2041 27.8739 80.1541 27.6096 80.1541 27.3144V27.0287C80.1541 26.7335 80.2041 26.4692 80.3041 26.2358C80.4041 26.0025 80.5398 25.8049 80.7112 25.643C80.8827 25.4811 81.0826 25.3573 81.3112 25.2715C81.5398 25.1858 81.7826 25.143 82.0398 25.143C82.2969 25.143 82.5398 25.1858 82.7684 25.2715C82.9969 25.3573 83.1969 25.4811 83.3684 25.643C83.5398 25.8049 83.6755 26.0025 83.7755 26.2358C83.8755 26.4692 83.9255 26.7335 83.9255 27.0287V27.3144C83.9255 27.6096 83.8755 27.8739 83.7755 28.1073C83.6755 28.3406 83.5398 28.5382 83.3684 28.7001C83.1969 28.862 82.9969 28.9858 82.7684 29.0715C82.5398 29.1573 82.2969 29.2001 82.0398 29.2001ZM91.2592 29.0001V30.7144H86.3735V29.0001H87.8306V25.343H86.5449V23.6287H89.5449V24.6573H89.802C89.9354 24.2668 90.1616 23.9644 90.4806 23.7501C90.7997 23.5358 91.183 23.4287 91.6306 23.4287C92.3354 23.4287 92.902 23.6501 93.3306 24.093C93.7592 24.5358 93.9735 25.2096 93.9735 26.1144V26.4287L92.1163 26.6001V26.4001C92.1163 26.0096 92.0163 25.6977 91.8163 25.4644C91.6163 25.2311 91.3163 25.1144 90.9163 25.1144C90.5163 25.1144 90.202 25.2525 89.9735 25.5287C89.7449 25.8049 89.6306 26.2001 89.6306 26.7144V29.0001H91.2592ZM98.3214 30.9144C98.7881 30.9144 99.1952 30.862 99.5429 30.7573C99.8905 30.6525 100.186 30.5192 100.429 30.3573C100.671 30.1954 100.869 30.0168 101.021 29.8215C101.174 29.6263 101.293 29.4382 101.379 29.2573L99.8357 28.4001C99.7309 28.6192 99.5595 28.8073 99.3214 28.9644C99.0833 29.1215 98.7405 29.2001 98.2929 29.2001C98.0643 29.2001 97.8476 29.1644 97.6429 29.093C97.4381 29.0215 97.2571 28.9215 97.1 28.793C96.9429 28.6644 96.819 28.512 96.7286 28.3358C96.6381 28.1596 96.5881 27.9668 96.5786 27.7573H101.779V26.8001C101.779 26.4287 101.712 26.0454 101.579 25.6501C101.445 25.2549 101.236 24.893 100.95 24.5644C100.664 24.2358 100.302 23.9644 99.8643 23.7501C99.4262 23.5358 98.9024 23.4287 98.2929 23.4287C97.7976 23.4287 97.3333 23.5168 96.9 23.693C96.4667 23.8692 96.0881 24.1144 95.7643 24.4287C95.4405 24.743 95.1857 25.1239 95 25.5715C94.8143 26.0192 94.7214 26.5144 94.7214 27.0573V27.143C94.7214 27.7335 94.8095 28.262 94.9857 28.7287C95.1619 29.1954 95.4095 29.5906 95.7286 29.9144C96.0476 30.2382 96.4262 30.4858 96.8643 30.6573C97.3024 30.8287 97.7881 30.9144 98.3214 30.9144ZM96.6071 26.2144H99.95C99.8929 25.8811 99.7143 25.6049 99.4143 25.3858C99.1143 25.1668 98.7357 25.0573 98.2786 25.0573C97.8214 25.0573 97.45 25.1739 97.1643 25.4073C96.8786 25.6406 96.6929 25.9096 96.6071 26.2144Z" fill="#495567"/>
<path fill-rule="evenodd" clip-rule="evenodd" d="M51.8255 9.60362C51.7422 9.63933 51.6553 9.65719 51.5648 9.65719C51.4696 9.65719 51.3815 9.63933 51.3005 9.60362C51.2196 9.56791 51.1481 9.52029 51.0862 9.46076C51.0243 9.40124 50.9755 9.32981 50.9398 9.24648C50.9041 9.16314 50.8862 9.07386 50.8862 8.97862C50.8862 8.88338 50.9041 8.7941 50.9398 8.71076C50.9755 8.62743 51.0243 8.556 51.0862 8.49648C51.1481 8.43695 51.2196 8.38933 51.3005 8.35362C51.3815 8.31791 51.4696 8.30005 51.5648 8.30005C51.6553 8.30005 51.7422 8.31791 51.8255 8.35362C51.9088 8.38933 51.9815 8.43695 52.0434 8.49648C52.1053 8.556 52.1541 8.62743 52.1898 8.71076C52.2255 8.7941 52.2434 8.88338 52.2434 8.97862C52.2434 9.07386 52.2255 9.16314 52.1898 9.24648C52.1541 9.32981 52.1053 9.40124 52.0434 9.46076C51.9815 9.52029 51.9088 9.56791 51.8255 9.60362ZM38.4786 12.5L38.2357 13.5715H37.25L38.4429 8.57148H40.2143L41.4071 13.5715H40.4214L40.1786 12.5H38.4786ZM38.6786 11.6H39.9714L39.3929 9.04291H39.2643L38.6786 11.6ZM44.2311 13.5715L45.2454 10.0286H44.274L43.4383 13.1429H43.3097L42.474 10.0286H41.5026L42.5168 13.5715H44.2311ZM47.698 13.5322C47.5265 13.625 47.3265 13.6715 47.098 13.6715C46.8837 13.6715 46.6825 13.631 46.4944 13.55C46.3063 13.4691 46.1408 13.35 45.998 13.1929C45.8551 13.0358 45.742 12.8453 45.6587 12.6215C45.5753 12.3977 45.5337 12.1429 45.5337 11.8572V11.7429C45.5337 11.462 45.5741 11.2096 45.6551 10.9858C45.7361 10.762 45.8456 10.5715 45.9837 10.4143C46.1218 10.2572 46.2825 10.137 46.4658 10.0536C46.6491 9.97029 46.8456 9.92862 47.0551 9.92862C47.3075 9.92862 47.5111 9.97148 47.6658 10.0572C47.8206 10.1429 47.9432 10.2762 48.0337 10.4572H48.1622V10.0286H49.0622V12.5C49.0622 12.6429 49.1265 12.7143 49.2551 12.7143H49.3908V13.5715H48.7765C48.6146 13.5715 48.4825 13.5239 48.3801 13.4286C48.2777 13.3334 48.2265 13.2096 48.2265 13.0572H48.098C48.0027 13.281 47.8694 13.4393 47.698 13.5322ZM47.298 12.8143C47.0361 12.8143 46.8265 12.7274 46.6694 12.5536C46.5122 12.3798 46.4337 12.1429 46.4337 11.8429V11.7572C46.4337 11.4572 46.5122 11.2203 46.6694 11.0465C46.8265 10.8727 47.0361 10.7858 47.298 10.7858C47.5599 10.7858 47.7694 10.8727 47.9265 11.0465C48.0837 11.2203 48.1622 11.4572 48.1622 11.7572V11.8429C48.1622 12.1429 48.0837 12.3798 47.9265 12.5536C47.7694 12.7274 47.5599 12.8143 47.298 12.8143ZM53.0505 12.7143H52.0219V10.0286H50.0077V10.8858H51.1219V12.7143H49.9219V13.5715H53.0505V12.7143ZM56.0316 12.7143H57.1888V13.5715H53.8888V12.7143H55.1316V9.42862H53.9316V8.57148H56.0316V12.7143ZM59.2556 13.6715C59.4842 13.6715 59.6842 13.625 59.8556 13.5322C60.027 13.4393 60.1604 13.281 60.2556 13.0572H60.3842C60.3842 13.2096 60.4354 13.3334 60.5378 13.4286C60.6401 13.5239 60.7723 13.5715 60.9342 13.5715H61.5485V12.7143H61.4128C61.2842 12.7143 61.2199 12.6429 61.2199 12.5V10.0286H60.3199V10.4572H60.1913C60.1008 10.2762 59.9782 10.1429 59.8235 10.0572C59.6687 9.97148 59.4651 9.92862 59.2128 9.92862C59.0032 9.92862 58.8068 9.97029 58.6235 10.0536C58.4401 10.137 58.2794 10.2572 58.1413 10.4143C58.0032 10.5715 57.8937 10.762 57.8128 10.9858C57.7318 11.2096 57.6913 11.462 57.6913 11.7429V11.8572C57.6913 12.1429 57.733 12.3977 57.8163 12.6215C57.8997 12.8453 58.0128 13.0358 58.1556 13.1929C58.2985 13.35 58.4639 13.4691 58.652 13.55C58.8401 13.631 59.0413 13.6715 59.2556 13.6715ZM58.827 12.5536C58.9842 12.7274 59.1937 12.8143 59.4556 12.8143C59.7175 12.8143 59.927 12.7274 60.0842 12.5536C60.2413 12.3798 60.3199 12.1429 60.3199 11.8429V11.7572C60.3199 11.4572 60.2413 11.2203 60.0842 11.0465C59.927 10.8727 59.7175 10.7858 59.4556 10.7858C59.1937 10.7858 58.9842 10.8727 58.827 11.0465C58.6699 11.2203 58.5913 11.4572 58.5913 11.7572V11.8429C58.5913 12.1429 58.6699 12.3798 58.827 12.5536ZM64.001 13.6715C64.2201 13.6715 64.4236 13.6322 64.6117 13.5536C64.7998 13.475 64.9629 13.3584 65.101 13.2036C65.2391 13.0489 65.3486 12.8596 65.4296 12.6358C65.5105 12.412 65.551 12.1548 65.551 11.8643V11.7358C65.551 11.45 65.5094 11.1953 65.426 10.9715C65.3427 10.7477 65.2308 10.5584 65.0903 10.4036C64.9498 10.2489 64.7855 10.131 64.5975 10.05C64.4094 9.9691 64.2105 9.92862 64.001 9.92862C63.7201 9.92862 63.4891 9.98219 63.3082 10.0893C63.1272 10.1965 62.9891 10.3477 62.8939 10.5429H62.7653V8.57148H61.8653V13.5715H62.7653V13.0572H62.8939C62.9367 13.1381 62.9879 13.2155 63.0474 13.2893C63.107 13.3631 63.1808 13.4286 63.2689 13.4858C63.357 13.5429 63.4605 13.5881 63.5796 13.6215C63.6986 13.6548 63.8391 13.6715 64.001 13.6715ZM63.026 12.5465C63.1998 12.725 63.4272 12.8143 63.7082 12.8143C63.9891 12.8143 64.2165 12.7274 64.3903 12.5536C64.5641 12.3798 64.651 12.1429 64.651 11.8429V11.7572C64.651 11.4572 64.5641 11.2203 64.3903 11.0465C64.2165 10.8727 63.9891 10.7858 63.7082 10.7858C63.4272 10.7858 63.1998 10.875 63.026 11.0536C62.8522 11.2322 62.7653 11.4667 62.7653 11.7572V11.8429C62.7653 12.1334 62.8522 12.3679 63.026 12.5465ZM69.3464 12.7143H68.1893V8.57148H66.0893V9.42862H67.2893V12.7143H66.0464V13.5715H69.3464V12.7143ZM72.3954 13.5929C72.2216 13.6453 72.018 13.6715 71.7847 13.6715C71.518 13.6715 71.2752 13.6286 71.0561 13.5429C70.8371 13.4572 70.6478 13.3334 70.4883 13.1715C70.3287 13.0096 70.2049 12.812 70.1168 12.5786C70.0287 12.3453 69.9847 12.081 69.9847 11.7858V11.7429C69.9847 11.4715 70.0311 11.2239 70.124 11C70.2168 10.7762 70.3442 10.5858 70.5061 10.4286C70.668 10.2715 70.8573 10.1489 71.074 10.0608C71.2906 9.97267 71.5228 9.92862 71.7704 9.92862C72.0752 9.92862 72.3371 9.98219 72.5561 10.0893C72.7752 10.1965 72.9561 10.3322 73.099 10.4965C73.2418 10.6608 73.3466 10.8417 73.4133 11.0393C73.4799 11.237 73.5133 11.4286 73.5133 11.6143V12.0929H70.9133C70.918 12.1977 70.943 12.2941 70.9883 12.3822C71.0335 12.4703 71.0954 12.5465 71.174 12.6108C71.2526 12.675 71.343 12.725 71.4454 12.7608C71.5478 12.7965 71.6561 12.8143 71.7704 12.8143C71.9942 12.8143 72.1656 12.775 72.2847 12.6965C72.4037 12.6179 72.4895 12.5239 72.5418 12.4143L73.3133 12.8429C73.2704 12.9334 73.2109 13.0274 73.1347 13.125C73.0585 13.2227 72.9597 13.312 72.8383 13.3929C72.7168 13.4739 72.5692 13.5405 72.3954 13.5929ZM72.599 11.3215H70.9276C70.9704 11.1691 71.0633 11.0346 71.2061 10.9179C71.349 10.8012 71.5347 10.7429 71.7633 10.7429C71.9918 10.7429 72.1811 10.7977 72.3311 10.9072C72.4811 11.0167 72.5704 11.1548 72.599 11.3215ZM80.5505 13.55C80.3291 13.631 80.0969 13.6715 79.8541 13.6715C79.6112 13.6715 79.3791 13.631 79.1576 13.55C78.9362 13.4691 78.7398 13.3512 78.5684 13.1965C78.3969 13.0417 78.2612 12.8512 78.1612 12.625C78.0612 12.3989 78.0112 12.1381 78.0112 11.8429V11.7572C78.0112 11.4667 78.0612 11.2084 78.1612 10.9822C78.2612 10.756 78.3969 10.5643 78.5684 10.4072C78.7398 10.25 78.9362 10.131 79.1576 10.05C79.3791 9.9691 79.6112 9.92862 79.8541 9.92862C80.0969 9.92862 80.3291 9.9691 80.5505 10.05C80.7719 10.131 80.9684 10.25 81.1398 10.4072C81.3112 10.5643 81.4469 10.756 81.5469 10.9822C81.6469 11.2084 81.6969 11.4667 81.6969 11.7572V11.8429C81.6969 12.1381 81.6469 12.3989 81.5469 12.625C81.4469 12.8512 81.3112 13.0417 81.1398 13.1965C80.9684 13.3512 80.7719 13.4691 80.5505 13.55ZM79.8541 12.8143C79.7255 12.8143 79.6041 12.7929 79.4898 12.75C79.3755 12.7072 79.2755 12.6453 79.1898 12.5643C79.1041 12.4834 79.0362 12.3846 78.9862 12.2679C78.9362 12.1512 78.9112 12.0191 78.9112 11.8715V11.7286C78.9112 11.581 78.9362 11.4489 78.9862 11.3322C79.0362 11.2155 79.1041 11.1167 79.1898 11.0358C79.2755 10.9548 79.3755 10.8929 79.4898 10.85C79.6041 10.8072 79.7255 10.7858 79.8541 10.7858C79.9827 10.7858 80.1041 10.8072 80.2184 10.85C80.3327 10.8929 80.4327 10.9548 80.5184 11.0358C80.6041 11.1167 80.6719 11.2155 80.7219 11.3322C80.7719 11.4489 80.7969 11.581 80.7969 11.7286V11.8715C80.7969 12.0191 80.7719 12.1512 80.7219 12.2679C80.6719 12.3846 80.6041 12.4834 80.5184 12.5643C80.4327 12.6453 80.3327 12.7072 80.2184 12.75C80.1041 12.7929 79.9827 12.8143 79.8541 12.8143ZM83.1781 11.7286V13.5715H82.2781V10.0286H83.1781V10.5572H83.3066C83.3876 10.3572 83.5185 10.2024 83.6995 10.0929C83.8804 9.98338 84.0923 9.92862 84.3352 9.92862C84.5066 9.92862 84.6673 9.956 84.8173 10.0108C84.9673 10.0655 85.0995 10.15 85.2138 10.2643C85.3281 10.3786 85.4173 10.5239 85.4816 10.7C85.5459 10.8762 85.5781 11.0858 85.5781 11.3286V13.5715H84.6781V11.5572C84.6781 11.3048 84.6173 11.106 84.4959 10.9608C84.3745 10.8155 84.1995 10.7429 83.9709 10.7429C83.7043 10.7429 83.5054 10.8322 83.3745 11.0108C83.2435 11.1893 83.1781 11.4286 83.1781 11.7286ZM93.3832 12.7143H92.426C92.2975 12.7143 92.2332 12.6429 92.2332 12.5V10.8858H93.5117V10.0286H92.2332V8.57148H91.3332V10.0286H90.2832V10.8858H91.3332V13.0143C91.3332 13.1762 91.3844 13.3096 91.4867 13.4143C91.5891 13.5191 91.7213 13.5715 91.8832 13.5715H93.3832V12.7143ZM95.35 11.7286V13.5715H94.45V8.57148H95.35V10.6H95.4786C95.569 10.3858 95.7024 10.2203 95.8786 10.1036C96.0548 9.98695 96.2714 9.92862 96.5286 9.92862C96.7048 9.92862 96.8667 9.95719 97.0143 10.0143C97.1619 10.0715 97.2905 10.1572 97.4 10.2715C97.5095 10.3858 97.5952 10.5322 97.6571 10.7108C97.719 10.8893 97.75 11.1 97.75 11.3429V13.5715H96.85V11.5572C96.85 11.3048 96.7893 11.106 96.6679 10.9608C96.5464 10.8155 96.3714 10.7429 96.1429 10.7429C95.8762 10.7429 95.6774 10.8322 95.5464 11.0108C95.4155 11.1893 95.35 11.4286 95.35 11.7286ZM100.153 13.6715C100.386 13.6715 100.589 13.6453 100.763 13.5929C100.937 13.5405 101.085 13.4739 101.206 13.3929C101.328 13.312 101.426 13.2227 101.503 13.125C101.579 13.0274 101.638 12.9334 101.681 12.8429L100.91 12.4143C100.857 12.5239 100.772 12.6179 100.653 12.6965C100.534 12.775 100.362 12.8143 100.138 12.8143C100.024 12.8143 99.9156 12.7965 99.8133 12.7608C99.7109 12.725 99.6204 12.675 99.5418 12.6108C99.4633 12.5465 99.4014 12.4703 99.3561 12.3822C99.3109 12.2941 99.2859 12.1977 99.2811 12.0929H101.881V11.6143C101.881 11.4286 101.848 11.237 101.781 11.0393C101.714 10.8417 101.61 10.6608 101.467 10.4965C101.324 10.3322 101.143 10.1965 100.924 10.0893C100.705 9.98219 100.443 9.92862 100.138 9.92862C99.8906 9.92862 99.6585 9.97267 99.4418 10.0608C99.2252 10.1489 99.0359 10.2715 98.874 10.4286C98.7121 10.5858 98.5847 10.7762 98.4918 11C98.399 11.2239 98.3526 11.4715 98.3526 11.7429V11.7858C98.3526 12.081 98.3966 12.3453 98.4847 12.5786C98.5728 12.812 98.6966 13.0096 98.8561 13.1715C99.0156 13.3334 99.2049 13.4572 99.424 13.5429C99.643 13.6286 99.8859 13.6715 100.153 13.6715ZM99.2954 11.3215H100.967C100.938 11.1548 100.849 11.0167 100.699 10.9072C100.549 10.7977 100.36 10.7429 100.131 10.7429C99.9025 10.7429 99.7168 10.8012 99.574 10.9179C99.4311 11.0346 99.3383 11.1691 99.2954 11.3215Z" fill="#495567"/>
<path fill-rule="evenodd" clip-rule="evenodd" d="M21.1072 11.5947C21.8128 10.7331 23.0235 10.0715 24.0594 10C24.233 11.1779 23.7533 12.3315 23.1194 13.147C22.4418 14.0231 21.2724 14.7005 20.1406 14.6654C19.9341 13.5372 20.4636 12.3763 21.1072 11.5947ZM24.2975 14.6667C25.6761 14.6667 27.136 15.4124 28.1747 16.6973C24.7693 18.5503 25.321 23.3774 28.7619 24.6698C28.2888 25.7108 28.0618 26.175 27.4518 27.0971C26.6007 28.3833 25.4022 29.9861 23.9145 29.9974C23.3029 30.0037 22.9017 29.8211 22.4691 29.6243C21.9678 29.3961 21.4242 29.1487 20.4622 29.1541C19.5054 29.1587 18.9532 29.4031 18.4449 29.6279C18.0012 29.8242 17.591 30.0057 16.9744 29.9999C15.4879 29.9874 14.3515 28.541 13.5005 27.2548C11.1224 23.6601 10.8713 19.4399 12.3387 17.1953C13.3825 15.6013 15.0288 14.6692 16.5748 14.6692C17.3988 14.6692 18.0629 14.9041 18.6958 15.1279C19.2718 15.3316 19.8219 15.5262 20.4431 15.5262C21.018 15.5262 21.4906 15.3486 22.0061 15.1548C22.6246 14.9223 23.3049 14.6667 24.2975 14.6667Z" fill="#495567"/>
</svg>
