<svg width="95" height="96" viewBox="0 0 95 96" fill="none" xmlns="http://www.w3.org/2000/svg">
<g id="Group 10">
<ellipse id="Oval Copy 4" cx="47.5796" cy="48" rx="46.7953" ry="48" fill="#FCB72B"/>
<path id="Combined Shape" fill-rule="evenodd" clip-rule="evenodd" d="M63.3452 46H65.1279C65.4869 46 65.7779 45.7015 65.7779 45.3333V40C65.7779 39.6318 65.4869 39.3333 65.1279 39.3333H59.0303L57.9787 37.176V34.6667C57.9787 34.2985 57.6877 34 57.3287 34H53.4291C53.0702 34 52.7792 34.2985 52.7792 34.6667V37.3333C52.7792 37.7015 53.0702 38 53.4291 38H56.9271L57.9787 40.1573V58H56.0289V57.3333C56.0289 56.2288 55.1559 55.3333 54.0791 55.3333V48C54.0791 47.6318 53.7881 47.3333 53.4291 47.3333H46.2798V45.5207L48.0717 45.98C48.1234 45.9933 48.1764 46 48.2296 46H53.4291C53.7881 46 54.0791 45.7015 54.0791 45.3333V44.0075C54.083 45.1086 54.9544 46 56.0288 46C57.1057 46 57.9786 45.1046 57.9786 44C57.9786 42.8954 57.1057 42 56.0288 42C54.9544 42 54.083 42.8914 54.0791 43.9925V42.6667C54.0791 42.2985 53.7881 42 53.4291 42H48.3096L46.2798 41.4793V30.6667C46.2798 29.1939 45.1159 28 43.6801 28H41.0804C39.6446 28 38.4806 29.1939 38.4806 30.6667V38H35.2309C34.1541 38 33.2811 38.8954 33.2811 40V42H28.7316C28.4688 42.0001 28.2318 42.1625 28.1313 42.4116C28.0307 42.6606 28.0863 42.9473 28.2721 43.138L29.7624 44.6667L28.2721 46.1953C28.0863 46.386 28.0307 46.6727 28.1313 46.9218C28.2318 47.1708 28.4688 47.3333 28.7316 47.3333H35.2309C36.3078 47.3333 37.1807 46.4379 37.1807 45.3333V43.3333H38.4806V50H36.5308C34.2713 50.0027 32.3561 51.706 32.0333 54H30.0315C29.6725 54 29.3815 54.2985 29.3815 54.6667V57.3333C29.3815 57.7015 29.6725 58 30.0315 58H31.9813V59.3333H28.7316C28.3727 59.3333 28.0817 59.6318 28.0817 60V62.6667C28.0817 63.0349 28.3727 63.3333 28.7316 63.3333H35.8809C35.8809 65.9107 37.9178 68 40.4304 68C42.9431 68 44.98 65.9107 44.98 63.3333H56.6788C56.6788 65.9107 58.7157 68 61.2283 68C63.741 68 65.7779 65.9107 65.7779 63.3333H66.4278C66.626 63.3335 66.8134 63.2409 66.9368 63.0818C67.0602 62.9228 67.1061 62.7147 67.0615 62.5167L63.3452 46ZM56.6788 36.6667H54.079V35.3334H56.6788V36.6667ZM29.3815 62H31.9812V60.6666H29.3815V62ZM31.9814 56.6667H30.6815V55.3334H31.9814V56.6667ZM64.478 40.6666H63.1782V44.6666H64.478V40.6666ZM59.2786 40.6666H61.8783V44.6666H59.2786V40.6666ZM54.729 57.3333C54.729 56.9651 54.438 56.6666 54.0791 56.6666H51.4793V58H54.729V57.3333ZM48.0717 43.3134C48.1234 43.3267 48.1764 43.3334 48.2297 43.3334H52.7792V44.6667H48.3096L43.6801 43.4794V42.1874L48.0717 43.3134ZM41.0804 29.3334C40.3625 29.3334 39.7805 29.9303 39.7805 30.6667V33.3334H41.7303V32C41.7303 31.6319 42.0213 31.3334 42.3803 31.3334H44.98V30.6667C44.98 29.9303 44.398 29.3334 43.6801 29.3334H41.0804ZM42.3803 34.6666C42.7392 34.6666 43.0302 34.3681 43.0302 34V32.6666H44.98V34.1706L39.7805 35.7706V34.6666H42.3803ZM44.98 38.6666V35.5626L39.7805 37.1626V38.6666H44.98ZM44.98 40V41.146L43.1881 40.6867C42.9939 40.6368 42.7882 40.6814 42.6303 40.8078C42.4725 40.9341 42.3803 41.128 42.3803 41.3333V44C42.3803 44.3058 42.5831 44.5724 42.8723 44.6467L44.98 45.1873V47.3333H39.7805V40H44.98ZM52.7792 48.6666H39.7805V50H50.8294C51.1884 50 51.4793 50.2984 51.4793 50.6666V55.3333H52.7792V48.6666ZM35.8808 45.3334C35.8808 45.7016 35.5898 46 35.2309 46H30.3004L31.1408 45.138C31.3945 44.8777 31.3945 44.4557 31.1408 44.1954L30.3004 43.3334H35.8808V45.3334ZM34.5811 40V42H38.4807V39.3334H35.2311C34.8721 39.3334 34.5811 39.6319 34.5811 40ZM40.4304 66.6667C38.6365 66.6645 37.1828 65.1734 37.1807 63.3334H38.4806C38.4806 64.4379 39.3535 65.3334 40.4304 65.3334C41.5072 65.3334 42.3802 64.4379 42.3802 63.3334H43.68C43.6779 65.1734 42.2242 66.6645 40.4304 66.6667ZM40.4304 64C40.7894 64 41.0804 63.7016 41.0804 63.3334H39.7805C39.7805 63.7016 40.0715 64 40.4304 64ZM44.98 62H35.8809V55.3333C35.8809 54.9651 36.1719 54.6666 36.5308 54.6666H44.3301C44.689 54.6666 44.98 54.9651 44.98 55.3333V62ZM46.2798 62H47.5797V54.6667C47.5775 52.8267 46.1238 51.3356 44.33 51.3334H36.5308C34.7369 51.3356 33.2832 52.8267 33.2811 54.6667V62H34.581V55.3334C34.581 54.2288 35.4539 53.3334 36.5308 53.3334H44.33C45.4068 53.3334 46.2798 54.2288 46.2798 55.3334V62ZM47.5082 51.3334H50.1794V58H48.8796V54.6667C48.8797 53.4113 48.3851 52.2091 47.5082 51.3334ZM48.8796 59.3334V62H57.9787V59.3334H48.8796ZM61.2283 66.6667C59.4345 66.6645 57.9808 65.1734 57.9786 63.3334H59.2785C59.2785 64.4379 60.1515 65.3334 61.2283 65.3334C62.3052 65.3334 63.1781 64.4379 63.1781 63.3334H64.478C64.4758 65.1734 63.0222 66.6645 61.2283 66.6667ZM61.2284 64C61.5873 64 61.8783 63.7016 61.8783 63.3334H60.5785C60.5785 63.7016 60.8694 64 61.2284 64ZM59.2786 62V57.3333H60.5784V56H59.2786V46H62.0083L65.6076 62H59.2786ZM63.1781 56H61.8783V57.3333H63.1781V56ZM37.1807 56H38.4806V57.3333H37.1807V56ZM41.0804 56H39.7805V57.3333H41.0804V56ZM42.3802 56H43.6801V57.3333H42.3802V56ZM56.0289 43.3334C56.3879 43.3334 56.6789 43.6319 56.6789 44C56.6789 44.3682 56.3879 44.6667 56.0289 44.6667C55.67 44.6667 55.379 44.3682 55.379 44C55.379 43.6319 55.67 43.3334 56.0289 43.3334ZM28.0817 32.6667H36.5308V34H28.0817V32.6667ZM37.1807 35.3334H29.3815V36.6667H37.1807V35.3334Z" fill="#495567"/>
</g>
</svg>
