<svg width="94" height="96" viewBox="0 0 94 96" fill="none" xmlns="http://www.w3.org/2000/svg">
<g id="Group 8">
<ellipse id="Oval" cx="46.7953" cy="48" rx="46.7953" ry="48" fill="#FCB72B"/>
<path id="Combined Shape" fill-rule="evenodd" clip-rule="evenodd" d="M52.4491 24H32.182C30.0305 24.0028 28.2872 25.791 28.2844 27.9979V67.9765C28.2872 70.1834 30.0305 71.9716 32.182 71.9744H51.6696V70.544C51.6659 66.9421 52.7054 63.4194 54.6567 60.4246C54.8632 60.1071 54.8217 59.6848 54.5592 59.4155L49.1027 53.8185C48.5983 53.3006 48.331 52.5884 48.3662 51.8573C48.4017 51.1259 48.7367 50.4447 49.2882 49.9805C50.3505 49.1476 51.8528 49.2665 52.7781 50.2562L60.4726 58.149L61.5748 57.0184L56.3466 51.6541V27.9979C56.3439 25.791 54.6005 24.0028 52.4491 24ZM54.7876 50.0549L53.8803 49.1242C52.3848 47.5571 49.9797 47.3937 48.2959 48.7456C47.4053 49.4964 46.8649 50.5986 46.8086 51.7802C46.7525 52.9616 47.1851 54.1124 48.0005 54.9491L53.0127 60.0906C51.1435 63.1803 50.141 66.7392 50.1161 70.3753H32.182C30.8907 70.3753 29.8435 69.3011 29.8435 67.9766V65.5778H49.3311V63.9787H29.8435V30.3966H54.7876V50.0549ZM29.8435 28.7974H54.7876V27.9978C54.7876 26.6733 53.7404 25.5991 52.4491 25.5991H32.182C30.8907 25.5991 29.8435 26.6733 29.8435 27.9978V28.7974ZM58.6451 42.6005L57.5939 43.779L62.3744 48.2742C63.4998 49.3363 64.1413 50.8327 64.1417 52.4008V71.9744H65.7008V52.4008C65.6988 50.3839 64.8741 48.4605 63.4262 47.0955L58.6451 42.6005ZM32.9615 38.3923H36.0795C36.9406 38.3923 37.6385 37.6765 37.6385 36.7932V33.5949C37.6385 32.7115 36.9406 31.9957 36.0795 31.9957H32.9615C32.1003 31.9957 31.4024 32.7115 31.4024 33.5949V36.7932C31.4024 37.6765 32.1003 38.3923 32.9615 38.3923ZM32.9615 33.5948H36.0796V36.7931H32.9615V33.5948ZM43.8746 38.3923H40.7566C39.8955 38.3923 39.1976 37.6765 39.1976 36.7932V33.5949C39.1976 32.7115 39.8955 31.9957 40.7566 31.9957H43.8746C44.7358 31.9957 45.4337 32.7115 45.4337 33.5949V36.7932C45.4337 37.6765 44.7358 38.3923 43.8746 38.3923ZM43.8747 33.5948H40.7567V36.7931H43.8747V33.5948ZM48.5516 38.3923H51.6696C52.5307 38.3923 53.2286 37.6765 53.2286 36.7932V33.5949C53.2286 32.7115 52.5307 31.9957 51.6696 31.9957H48.5516C47.6904 31.9957 46.9925 32.7115 46.9925 33.5949V36.7932C46.9925 37.6765 47.6904 38.3923 48.5516 38.3923ZM48.5516 33.5948H51.6697V36.7931H48.5516V33.5948ZM36.0795 46.388H32.9615C32.1003 46.388 31.4024 45.6722 31.4024 44.7889V41.5906C31.4024 40.7073 32.1003 39.9915 32.9615 39.9915H36.0795C36.9406 39.9915 37.6385 40.7073 37.6385 41.5906V44.7889C37.6385 45.6722 36.9406 46.388 36.0795 46.388ZM36.0796 41.5906H32.9615V44.7889H36.0796V41.5906ZM32.9615 54.3838H36.0795C36.9406 54.3838 37.6385 53.668 37.6385 52.7846V49.5863C37.6385 48.703 36.9406 47.9872 36.0795 47.9872H32.9615C32.1003 47.9872 31.4024 48.703 31.4024 49.5863V52.7846C31.4024 53.668 32.1003 54.3838 32.9615 54.3838ZM32.9615 49.5863H36.0796V52.7846H32.9615V49.5863ZM43.8746 46.388H40.7566C39.8955 46.388 39.1976 45.6722 39.1976 44.7889V41.5906C39.1976 40.7073 39.8955 39.9915 40.7566 39.9915H43.8746C44.7358 39.9915 45.4337 40.7073 45.4337 41.5906V44.7889C45.4337 45.6722 44.7358 46.388 43.8746 46.388ZM43.8747 41.5906H40.7567V44.7889H43.8747V41.5906ZM48.5516 46.388H51.6696C52.5307 46.388 53.2286 45.6722 53.2286 44.7889V41.5906C53.2286 40.7073 52.5307 39.9915 51.6696 39.9915H48.5516C47.6904 39.9915 46.9925 40.7073 46.9925 41.5906V44.7889C46.9925 45.6722 47.6904 46.388 48.5516 46.388ZM48.5516 41.5906H51.6697V44.7889H48.5516V41.5906ZM43.8746 54.3838H40.7566C39.8955 54.3838 39.1976 53.668 39.1976 52.7846V49.5863C39.1976 48.703 39.8955 47.9872 40.7566 47.9872H43.8746C44.7358 47.9872 45.4337 48.703 45.4337 49.5863V52.7846C45.4337 53.668 44.7358 54.3838 43.8746 54.3838ZM43.8747 49.5863H40.7567V52.7846H43.8747V49.5863ZM32.9615 62.3795H36.0795C36.9406 62.3795 37.6385 61.6637 37.6385 60.7803V57.5821C37.6385 56.6987 36.9406 55.9829 36.0795 55.9829H32.9615C32.1003 55.9829 31.4024 56.6987 31.4024 57.5821V60.7803C31.4024 61.6637 32.1003 62.3795 32.9615 62.3795ZM32.9615 57.582H36.0796V60.7803H32.9615V57.582ZM43.8746 62.3795H40.7566C39.8955 62.3795 39.1976 61.6637 39.1976 60.7803V57.5821C39.1976 56.6987 39.8955 55.9829 40.7566 55.9829H43.8746C44.7358 55.9829 45.4337 56.6987 45.4337 57.5821V60.7803C45.4337 61.6637 44.7358 62.3795 43.8746 62.3795ZM43.8747 57.582H40.7567V60.7803H43.8747V57.582ZM43.0951 67.177H41.5361V68.7761H43.0951V67.177Z" fill="#495567"/>
</g>
</svg>
