<svg width="94" height="96" viewBox="0 0 94 96" fill="none" xmlns="http://www.w3.org/2000/svg">
<g id="Group 9">
<ellipse id="Oval Copy 3" cx="47.1168" cy="48" rx="46.7953" ry="48" fill="#FCB72B"/>
<g id="001-scooter">
<path id="Path" d="M44.2602 62.301C44.048 62.301 43.8402 62.3895 43.6903 62.5433C43.5404 62.697 43.4541 62.9105 43.4541 63.1279C43.4541 63.3453 43.5404 63.5588 43.6903 63.7125C43.8402 63.8663 44.048 63.9548 44.2602 63.9548C44.4721 63.9548 44.68 63.8663 44.8302 63.7125C44.9801 63.5588 45.0663 63.3462 45.0663 63.1279C45.0663 62.9105 44.9801 62.697 44.8302 62.5433C44.68 62.3895 44.4721 62.301 44.2602 62.301Z" fill="black"/>
<path id="Shape" fill-rule="evenodd" clip-rule="evenodd" d="M60.3163 48.419L58.4376 39.7132C58.9446 39.6428 59.3917 39.3783 59.7063 38.9952C60.0776 39.2332 60.5156 39.3715 60.9848 39.3715H62.597C63.0423 39.3715 63.4031 39.0013 63.4031 38.5446V35.2371C63.4031 34.7804 63.0423 34.4102 62.597 34.4102H60.9848C60.5017 34.4102 60.0514 34.5569 59.6733 34.8085C59.3042 34.3805 58.7654 34.1099 58.1659 34.1099H53.4072C52.5523 34.1099 51.8205 34.6599 51.5292 35.4329H49.6185C48.4628 35.4329 47.5226 36.3973 47.5226 37.5827C47.5226 38.7681 48.4628 39.7326 49.6185 39.7326H53.7678V41.3989C53.7678 41.8557 54.1287 42.2258 54.5739 42.2258C55.0192 42.2258 55.38 41.8557 55.38 41.3989V39.7326H56.7907L58.8142 49.1108L54.9845 56.1076C54.566 56.8692 53.7769 57.3424 52.9245 57.3424H43.3641C42.9639 53.8996 40.1022 51.221 36.6399 51.221C35.108 51.221 33.6626 51.7329 32.4601 52.7013L32.4554 52.7051C31.0235 53.8602 30.1236 55.5178 29.9139 57.3424H28.2582C28.3633 51.398 33.1103 46.5956 38.9298 46.5956H44.6482C45.0995 46.5956 45.467 46.9726 45.467 47.4358V54.8618C45.467 55.3185 45.8278 55.6887 46.2731 55.6887H50.5625C52.3124 55.6887 53.9249 54.7126 54.7707 53.1418C55.1621 52.4151 55.3696 51.5921 55.3703 50.7623L55.3744 48.0152C55.375 47.5585 55.0144 47.1877 54.5692 47.1871H54.5682C54.1236 47.1871 53.7628 47.5566 53.7621 48.0126L53.758 50.7604C53.7577 51.3121 53.6198 51.8592 53.3597 52.3421C52.7973 53.386 51.7254 54.0346 50.5625 54.0346H47.0792V47.4354C47.0792 47.012 46.9753 46.6128 46.793 46.263C47.5172 45.8337 48.0059 45.0314 48.0059 44.1137C48.0059 42.7458 46.9208 41.6331 45.5876 41.6331H42.6452C42.3624 41.6331 42.0913 41.6835 41.8391 41.7752V34.522C41.8391 33.1541 40.754 32.0414 39.4207 32.0414H34.2203C30.4504 32.0414 27.3154 34.8805 26.7391 38.5834C26.7149 38.6622 26.7017 38.7458 26.7017 38.8327C26.7017 38.8354 26.7018 38.8379 26.702 38.8404C26.7021 38.8428 26.7023 38.8452 26.7023 38.8476C26.6639 39.1641 26.644 39.4861 26.644 39.8127V44.1141C26.644 45.356 27.5386 46.3876 28.7015 46.5669L30.4867 48.398C28.1215 50.6964 26.644 53.9464 26.644 57.5443V58.1693C26.644 58.626 27.0049 58.9962 27.4502 58.9962H31.9805C31.9701 59.0495 31.9644 59.105 31.9644 59.1615C31.9644 60.3615 32.3974 61.4593 33.1103 62.3011H27.4502C27.0049 62.3011 26.644 62.6715 26.644 63.1279C26.644 63.5847 27.0049 63.9548 27.4502 63.9548H36.5467L36.5736 63.9558C36.5957 63.9566 36.6177 63.9574 36.6399 63.9574C39.2179 63.9574 41.3154 61.8059 41.3154 59.1615C41.3154 59.105 41.3098 59.0495 41.2994 58.9962H52.9245C54.1938 58.9962 55.38 58.3721 56.1235 57.3398H57.1444C56.9148 57.9128 56.7929 58.5304 56.7929 59.1615C56.7929 60.3615 57.2259 61.4593 57.9388 62.3011H47.4848C47.0395 62.3011 46.6787 62.6715 46.6787 63.1279C46.6787 63.5847 47.0395 63.9548 47.4848 63.9548H61.3752L61.4109 63.9561C61.4301 63.9568 61.4492 63.9574 61.4684 63.9574C64.0465 63.9574 66.1439 61.8059 66.1439 59.1615C66.1439 58.5304 66.0221 57.9128 65.7925 57.3398H67.1113C67.5565 57.3398 67.9174 56.9697 67.9174 56.513C67.9174 52.1483 64.5339 48.5788 60.3163 48.419ZM42.645 43.2872H45.5874C46.0317 43.2872 46.3935 43.658 46.3935 44.1141C46.3935 44.5699 46.0317 44.941 45.5874 44.941H42.645C42.2004 44.941 41.8389 44.5699 41.8389 44.1141C41.8389 43.658 42.2004 43.2872 42.645 43.2872ZM28.2585 39.711L28.2585 39.711C28.2573 39.7449 28.2562 39.7787 28.2562 39.8127V44.114C28.2562 44.5698 28.6177 44.9409 29.062 44.9409H29.0627H39.4204C39.865 44.9409 40.2265 44.5698 40.2265 44.114V34.5223C40.2265 34.0662 39.865 33.6954 39.4204 33.6954H34.2203C31.5446 33.6954 29.2752 35.512 28.522 38.0062H37.081C37.5263 38.0062 37.8872 38.3763 37.8872 38.833C37.8872 39.2898 37.5263 39.6599 37.081 39.6599H28.26L28.2585 39.711ZM31.0086 46.5947H32.8532C32.4659 46.8215 32.0921 47.0699 31.7325 47.3373L31.0086 46.5947ZM36.6711 62.3027C38.3457 62.2856 39.7032 60.8835 39.7032 59.1616C39.7032 59.1051 39.7088 59.0495 39.7192 58.9962H33.5606C33.571 59.0495 33.5766 59.1051 33.5766 59.1616C33.5766 60.8622 34.9008 62.2504 36.547 62.3011H36.6399C36.6458 62.3011 36.6518 62.3015 36.6577 62.302C36.6622 62.3023 36.6666 62.3026 36.6711 62.3027ZM31.5406 57.3425C31.7402 56.0288 32.4128 54.8421 33.4516 54.0052C33.4529 54.0044 33.4541 54.0035 33.4553 54.0025L33.4572 54.001L33.4589 53.9998C34.374 53.264 35.4739 52.8748 36.6399 52.8748C39.2119 52.8748 41.3504 54.8144 41.7386 57.3425H31.5406ZM61.7908 36.064H60.9847C60.54 36.064 60.1786 36.4351 60.1786 36.8908C60.1786 37.3469 60.54 37.7177 60.9847 37.7177H61.7908V36.064ZM49.1347 37.5827C49.1347 37.3091 49.3517 37.0865 49.6184 37.0865H51.3944V37.6679C51.3944 37.8088 51.4083 37.946 51.4344 38.0788H49.6184C49.3517 38.0788 49.1347 37.8563 49.1347 37.5827ZM53.407 38.0788H54.5737H58.1657C58.3864 38.0788 58.5662 37.8947 58.5662 37.6679V36.1744C58.5662 35.948 58.3864 35.7635 58.1657 35.7635H53.407C53.1863 35.7635 53.0065 35.948 53.0065 36.1744V37.6679C53.0065 37.8947 53.1863 38.0788 53.407 38.0788ZM64.5316 59.1615C64.5316 60.8834 63.1741 62.2856 61.4995 62.3027C61.498 62.3027 61.4965 62.3026 61.495 62.3025C61.4919 62.3023 61.4887 62.3021 61.4855 62.3019C61.4828 62.3017 61.4801 62.3015 61.4773 62.3014C61.4743 62.3012 61.4714 62.3011 61.4684 62.3011H61.3755C59.7292 62.2504 58.4051 60.8621 58.4051 59.1615C58.4051 58.5046 58.6048 57.8696 58.9725 57.3398H63.9642C64.332 57.8696 64.5316 58.5046 64.5316 59.1615ZM60.1379 50.0701L57.0639 55.686H66.2534C65.8616 52.5597 63.277 50.1292 60.1379 50.0701Z" fill="#495567"/>
<path id="Path_2" d="M54.5738 45.5333C55.0191 45.5333 55.3799 45.1631 55.3799 44.7064C55.3799 44.2497 55.0191 43.8795 54.5738 43.8795H54.571C54.1257 43.8795 53.7661 44.2497 53.7661 44.7064C53.7661 45.1631 54.1286 45.5333 54.5738 45.5333V45.5333Z" fill="black"/>
</g>
</g>
</svg>
